<?xml version="1.0" encoding="UTF-8" standalone="no"?>
<!-- Created with Inkscape (http://www.inkscape.org/) -->

<svg
   xmlns:dc="http://purl.org/dc/elements/1.1/"
   xmlns:cc="http://creativecommons.org/ns#"
   xmlns:rdf="http://www.w3.org/1999/02/22-rdf-syntax-ns#"
   xmlns:svg="http://www.w3.org/2000/svg"
   xmlns="http://www.w3.org/2000/svg"
   xmlns:sodipodi="http://sodipodi.sourceforge.net/DTD/sodipodi-0.dtd"
   xmlns:inkscape="http://www.inkscape.org/namespaces/inkscape"
   width="386.93326"
   height="179.31172"
   id="svg8433"
   version="1.1"
   inkscape:version="0.48.4 r9939"
   sodipodi:docname="design.svg">
  <defs
     id="defs8435" />
  <sodipodi:namedview
     id="base"
     pagecolor="#ffffff"
     bordercolor="#666666"
     borderopacity="1.0"
     inkscape:pageopacity="0.0"
     inkscape:pageshadow="2"
     inkscape:zoom="0.782243"
     inkscape:cx="66.835321"
     inkscape:cy="-267.12963"
     inkscape:document-units="px"
     inkscape:current-layer="layer1"
     showgrid="false"
     inkscape:window-width="480"
     inkscape:window-height="1055"
     inkscape:window-x="1440"
     inkscape:window-y="25"
     inkscape:window-maximized="0"
     fit-margin-top="0"
     fit-margin-left="0"
     fit-margin-right="0"
     fit-margin-bottom="0"
     showguides="true"
     inkscape:guide-bbox="true" />
  <metadata
     id="metadata8438">
    <rdf:RDF>
      <cc:Work
         rdf:about="">
        <dc:format>image/svg+xml</dc:format>
        <dc:type
           rdf:resource="http://purl.org/dc/dcmitype/StillImage" />
        <dc:title />
      </cc:Work>
    </rdf:RDF>
  </metadata>
  <g
     inkscape:label="feel"
     inkscape:groupmode="layer"
     id="layer1"
     transform="translate(-311.39052,-7.7746824)">
    <rect
       style="fill:#e3e2db;fill-opacity:1;stroke:none"
       id="rect3039"
       width="1024"
       height="700"
       x="-7.1428571"
       y="270.93317" />
    <rect
       style="fill:#484537;fill-opacity:1;stroke:none"
       id="rect9099"
       width="1024"
       height="300"
       x="-7.1428571"
       y="-29.066818" />
    <g
       id="g3023"
       transform="translate(2.5862851e-6,-51.140317)">
      <g
         transform="matrix(1.6679374,0,0,1.6679374,213.30617,-254.75632)"
         id="g9070">
        <g
           id="g3079"
           transform="matrix(2.2234413,0,0,2.2234413,278.5654,205.05138)"
           style="fill:#b0bc15;fill-opacity:1;stroke:none;enable-background:new">
          <g
             style="font-size:51.03498077px;font-style:normal;font-weight:normal;text-align:start;line-height:125%;letter-spacing:0px;word-spacing:0px;text-anchor:start;fill:#b0bc15;fill-opacity:1;stroke:none;font-family:Sans"
             id="text3046">
            <path
               d="m -98.83761,-1.0533709 6.48968,0 0.540807,4.7050186 0.216322,0 c 0.973441,-1.838719 2.145187,-3.19073447 3.515245,-4.05605057 1.370028,-0.86526373 2.74007,-1.29790873 4.11013,-1.29793613 0.75711,2.74e-5 1.370024,0.054108 1.838744,0.162242 0.504732,0.072135 0.955404,0.198323 1.352015,0.3785647 l -1.297935,6.8682455 c -0.504772,-0.1441948 -0.973471,-0.2523561 -1.406098,-0.3244839 -0.432664,-0.072087 -0.937415,-0.108141 -1.514258,-0.1081613 -1.009523,2.03e-5 -2.073109,0.3605579 -3.19076,1.0816134 -1.081627,0.7210945 -1.98297,2.0010024 -2.704033,3.8397276 l 0,15.575234 -7.949859,0 0,-26.8240139"
               style="font-variant:normal;font-weight:bold;font-stretch:normal;fill:#b0bc15;fill-opacity:1;stroke:none;font-family:Source Sans Pro;-inkscape-font-specification:Source Sans Pro Bold"
               id="path3884"
               inkscape:connector-curvature="0" />
          </g>
          <g
             id="text3068"
             style="font-size:51.03498077px;font-style:normal;font-weight:normal;text-align:start;line-height:125%;letter-spacing:0px;word-spacing:0px;text-anchor:start;fill:#b0bc15;fill-opacity:1;stroke:none;font-family:Sans">
            <path
               sodipodi:nodetypes="ccccccccccscccccsscccsc"
               inkscape:connector-curvature="0"
               id="path3077"
               style="font-variant:normal;font-weight:bold;font-stretch:normal;fill:#b0bc15;fill-opacity:1;stroke:none;font-family:Source Sans Pro;-inkscape-font-specification:Source Sans Pro Bold"
               d="m -74.616957,5.7470159 -3.470378,0 1.24007,-6.33083274 3.476748,-0.0770073 0.02944,-6.19780016 6.226268,0 0,6.14394867 6.073162,0 0,6.46169153 -6.073162,0 0,10.1559611 c -1.2e-5,1.428987 0.289186,2.466697 0.867594,3.113133 0.612407,0.612426 1.411954,0.918635 2.398644,0.91863 0.408265,5e-6 0.816544,-0.05103 1.22484,-0.153105 0.442286,-0.102064 0.833554,-0.221146 1.173804,-0.357245 l 1.173805,5.460743 c -0.680484,0.20414 -1.480032,0.40828 -2.398644,0.61242 -0.918645,0.204139 -1.990379,0.306209 -3.215204,0.30621 -1.565084,-1e-6 -2.909004,-0.238164 -4.031763,-0.71449 -1.088755,-0.476326 -1.990372,-1.13978 -2.704854,-1.990364 -0.680472,-0.85058 -1.190822,-1.871279 -1.53105,-3.062099 -0.306214,-1.224833 -0.459319,-2.568753 -0.459315,-4.031764 l 0,-10.2580301" />
          </g>
          <g
             style="font-size:52.78723145px;font-style:normal;font-weight:normal;text-align:start;line-height:125%;letter-spacing:0px;word-spacing:0px;text-anchor:start;fill:#b0bc15;fill-opacity:1;stroke:none;font-family:Sans"
             id="text3072">
            <path
               d="m -58.618982,12.079082 c -10e-7,-2.1818566 0.369509,-4.1173861 1.108532,-5.8065947 0.739018,-1.7243623 1.724378,-3.1672118 2.956085,-4.328553 1.266887,-1.16129472 2.727332,-2.04108103 4.38134,-2.63936159 1.653988,-0.63342031 3.37837,-0.95014331 5.173149,-0.95017011 1.618791,2.68e-5 3.079237,0.2815584 4.38134,0.84459565 1.302064,0.52789776 2.392999,1.24932253 3.272809,2.16427645 l -3.536745,4.8036381 c -1.23172,-1.0205331 -2.445825,-1.5308092 -3.642319,-1.5308297 -1.900354,2.05e-5 -3.395991,0.6686581 -4.486914,2.0059148 -1.090947,1.3372937 -1.636415,3.1496535 -1.636405,5.4370841 -10e-6,2.287458 0.545458,4.099818 1.636405,5.437085 1.126115,1.337283 2.533773,2.005921 4.222978,2.005915 0.950154,6e-6 1.812344,-0.193547 2.586574,-0.58066 0.774194,-0.387099 1.478023,-0.826992 2.11149,-1.31968 l 3.114446,4.909212 c -1.266916,1.126129 -2.674574,1.953128 -4.222978,2.481 -1.548443,0.527872 -3.04408,0.791808 -4.486915,0.791809 -1.82997,-1e-6 -3.536756,-0.299128 -5.120361,-0.897383 -1.548434,-0.633446 -2.903305,-1.530828 -4.064617,-2.692149 -1.161324,-1.161315 -2.076301,-2.586569 -2.744936,-4.275766 -0.668641,-1.724374 -1.002959,-3.6775 -1.002958,-5.859383"
               style="font-variant:normal;font-weight:bold;font-stretch:normal;fill:#b0bc15;fill-opacity:1;stroke:none;font-family:Source Sans Pro;-inkscape-font-specification:Source Sans Pro Bold"
               id="path3887"
               inkscape:connector-curvature="0" />
          </g>
        </g>
        <g
           style="font-size:32.01377869px;font-style:normal;font-weight:normal;text-align:start;line-height:125%;letter-spacing:-2.12693381px;word-spacing:0px;text-anchor:start;fill:#d1d59f;fill-opacity:1;stroke:none;enable-background:new;font-family:Sans"
           id="text3893"
           transform="matrix(3.6634147,0,0,3.6634147,418.74602,166.78666)">
          <path
             style="font-variant:normal;font-weight:bold;font-stretch:normal;fill:#d1d59f;fill-opacity:1;stroke:none;font-family:Source Sans Pro;-inkscape-font-specification:Source Sans Pro Bold"
             d="m -52.247686,11.203377 -4.728032,1.467931 0,13.365722 4.706025,0 0,-14.848047"
             id="path3898"
             inkscape:connector-curvature="0"
             sodipodi:nodetypes="ccccc" />
          <path
             d="m -50.391044,17.782627 c -10e-7,-1.323227 0.213424,-2.497064 0.640275,-3.521516 0.426848,-1.045771 0.992425,-1.920813 1.696731,-2.62513 0.725641,-0.704288 1.557998,-1.23785 2.497074,-1.600689 0.939064,-0.3841488 1.910148,-0.5762313 2.913254,-0.5762476 1.003089,1.63e-5 1.963501,0.1920988 2.88124,0.5762476 0.939058,0.362839 1.760745,0.896401 2.465061,1.600689 0.725631,0.704317 1.301878,1.579359 1.728744,2.62513 0.426834,1.024452 0.640259,2.198289 0.640276,3.521516 -1.7e-5,1.323243 -0.213442,2.507751 -0.640276,3.553529 -0.426866,1.024445 -1.003113,1.888816 -1.728744,2.593116 -0.704316,0.704305 -1.526003,1.248538 -2.465061,1.632703 -0.917739,0.362823 -1.878151,0.544234 -2.88124,0.544234 -1.003106,0 -1.97419,-0.181411 -2.913254,-0.544234 -0.939076,-0.384165 -1.771433,-0.928398 -2.497074,-1.632703 -0.704306,-0.7043 -1.269883,-1.568671 -1.696731,-2.593116 -0.426851,-1.045778 -0.640276,-2.230286 -0.640275,-3.553529 m 4.83408,0 c -6e-6,1.38727 0.234762,2.486409 0.704303,3.297419 0.490871,0.81102 1.227187,1.216527 2.208951,1.216524 0.960404,3e-6 1.686049,-0.405504 2.176937,-1.216524 0.490866,-0.81101 0.736305,-1.910149 0.736317,-3.297419 -1.2e-5,-1.387255 -0.245451,-2.486393 -0.736317,-3.297419 -0.490888,-0.811004 -1.216533,-1.216511 -2.176937,-1.216524 -0.981764,1.3e-5 -1.71808,0.40552 -2.208951,1.216524 -0.469541,0.811026 -0.704309,1.910164 -0.704303,3.297419"
             style="font-variant:normal;font-weight:bold;font-stretch:normal;fill:#d1d59f;fill-opacity:1;stroke:none;font-family:Source Sans Pro;-inkscape-font-specification:Source Sans Pro Bold"
             id="path3900"
             inkscape:connector-curvature="0" />
          <path
             sodipodi:nodetypes="ccccc"
             inkscape:connector-curvature="0"
             id="path3954"
             d="m -56.975718,10.287222 4.728032,-1.4679317 0,-3.0124818 -4.706025,0 0,4.4948075"
             style="font-variant:normal;font-weight:bold;font-stretch:normal;fill:#d1d59f;fill-opacity:1;stroke:none;font-family:Source Sans Pro;-inkscape-font-specification:Source Sans Pro Bold" />
        </g>
      </g>
      <text
         sodipodi:linespacing="125%"
         id="text9066"
         y="229.28885"
         x="309.12335"
         style="font-size:43.59935379px;font-style:normal;font-weight:normal;text-align:start;line-height:125%;letter-spacing:0px;word-spacing:0px;text-anchor:start;fill:#e3e2db;fill-opacity:1;stroke:none;font-family:Sans"
         xml:space="preserve"><tspan
           style="font-style:normal;font-variant:normal;font-weight:normal;font-stretch:normal;fill:#e3e2db;font-family:Source Sans Pro;-inkscape-font-specification:Source Sans Pro"
           y="229.28885"
           x="309.12335"
           id="tspan9068"
           sodipodi:role="line">OpenSource WebRTC</tspan></text>
    </g>
  </g>
  <g
     inkscape:groupmode="layer"
     id="layer2"
     inkscape:label="navigation"
     transform="translate(-318.53338,-36.8415)">
    <g
       id="g3040"
       transform="translate(-15.144926,-20.790798)">
      <text
         sodipodi:linespacing="125%"
         id="text3810"
         y="299.39685"
         x="639.8963"
         style="font-size:28.23702431px;font-style:normal;font-weight:normal;text-align:start;line-height:125%;letter-spacing:0px;word-spacing:0px;text-anchor:start;fill:#e3e2db;fill-opacity:1;stroke:none;font-family:Sans"
         xml:space="preserve"><tspan
           style="font-style:normal;font-variant:normal;font-weight:bold;font-stretch:normal;fill:#e3e2db;fill-opacity:1;font-family:Source Sans Pro;-inkscape-font-specification:Source Sans Pro Bold"
           y="299.39685"
           x="639.8963"
           id="tspan3812"
           sodipodi:role="line">Reference</tspan></text>
      <text
         xml:space="preserve"
         style="font-size:28.23702431px;font-style:normal;font-weight:normal;text-align:start;line-height:125%;letter-spacing:0px;word-spacing:0px;text-anchor:start;fill:#e3e2db;fill-opacity:1;stroke:none;font-family:Sans"
         x="395.43344"
         y="299.77127"
         id="text3814"
         sodipodi:linespacing="125%"><tspan
           sodipodi:role="line"
           id="tspan3816"
           x="395.43344"
           y="299.77127"
           style="font-style:normal;font-variant:normal;font-weight:bold;font-stretch:normal;fill:#e3e2db;fill-opacity:1;font-family:Source Sans Pro;-inkscape-font-specification:Source Sans Pro Bold">Samples</tspan></text>
      <text
         sodipodi:linespacing="125%"
         id="text3013"
         y="299.77127"
         x="530.43439"
         style="font-size:28.23702431px;font-style:normal;font-weight:normal;text-align:start;line-height:125%;letter-spacing:0px;word-spacing:0px;text-anchor:start;fill:#e3e2db;fill-opacity:1;stroke:none;font-family:Sans"
         xml:space="preserve"><tspan
           style="font-style:normal;font-variant:normal;font-weight:bold;font-stretch:normal;fill:#e3e2db;fill-opacity:1;font-family:Source Sans Pro;-inkscape-font-specification:Source Sans Pro Bold"
           y="299.77127"
           x="530.43439"
           id="tspan3015"
           sodipodi:role="line">Create</tspan></text>
      <text
         sodipodi:linespacing="125%"
         id="text3036"
         y="299.77127"
         x="291.28674"
         style="font-size:28.23702431px;font-style:normal;font-weight:normal;text-align:start;line-height:125%;letter-spacing:0px;word-spacing:0px;text-anchor:start;fill:#e3e2db;fill-opacity:1;stroke:none;font-family:Sans"
         xml:space="preserve"><tspan
           style="font-style:normal;font-variant:normal;font-weight:bold;font-stretch:normal;fill:#e3e2db;fill-opacity:1;font-family:Source Sans Pro;-inkscape-font-specification:Source Sans Pro Bold"
           y="299.77127"
           x="291.28674"
           id="tspan3038"
           sodipodi:role="line">About</tspan></text>
    </g>
  </g>
</svg>
