<?xml version="1.0" encoding="UTF-8" standalone="no"?>
<!-- Created with Inkscape (http://www.inkscape.org/) -->

<svg
   xmlns:dc="http://purl.org/dc/elements/1.1/"
   xmlns:cc="http://creativecommons.org/ns#"
   xmlns:rdf="http://www.w3.org/1999/02/22-rdf-syntax-ns#"
   xmlns:svg="http://www.w3.org/2000/svg"
   xmlns="http://www.w3.org/2000/svg"
   xmlns:sodipodi="http://sodipodi.sourceforge.net/DTD/sodipodi-0.dtd"
   xmlns:inkscape="http://www.inkscape.org/namespaces/inkscape"
   width="400"
   height="185"
   id="svg3079"
   version="1.1"
   inkscape:version="0.48.4 r9939"
   sodipodi:docname="rtcio.svg">
  <defs
     id="defs3081" />
  <sodipodi:namedview
     id="base"
     pagecolor="#ffffff"
     bordercolor="#666666"
     borderopacity="1.0"
     inkscape:pageopacity="0.0"
     inkscape:pageshadow="2"
     inkscape:zoom="1.4142136"
     inkscape:cx="368.34373"
     inkscape:cy="3.8401611"
     inkscape:document-units="px"
     inkscape:current-layer="layer1"
     showgrid="false"
     fit-margin-top="0"
     fit-margin-left="0"
     fit-margin-right="0"
     fit-margin-bottom="0"
     inkscape:window-width="1920"
     inkscape:window-height="1055"
     inkscape:window-x="0"
     inkscape:window-y="25"
     inkscape:window-maximized="0" />
  <metadata
     id="metadata3084">
    <rdf:RDF>
      <cc:Work
         rdf:about="">
        <dc:format>image/svg+xml</dc:format>
        <dc:type
           rdf:resource="http://purl.org/dc/dcmitype/StillImage" />
      </cc:Work>
    </rdf:RDF>
  </metadata>
  <g
     inkscape:label="Layer 1"
     inkscape:groupmode="layer"
     id="layer1"
     transform="translate(-86.191863,-105.44894)">
    <g
       id="g3023"
       transform="matrix(1.027412,0,0,1.027412,-232.50442,43.708936)">
      <g
         transform="matrix(1.6679374,0,0,1.6679374,213.30617,-254.75632)"
         id="g9070">
        <g
           id="g3079"
           transform="matrix(2.2234413,0,0,2.2234413,278.5654,205.05138)"
           style="fill:#b0bc15;fill-opacity:1;stroke:none;enable-background:new">
          <g
             style="font-size:51.03498077px;font-style:normal;font-weight:normal;text-align:start;line-height:125%;letter-spacing:0px;word-spacing:0px;text-anchor:start;fill:#b0bc15;fill-opacity:1;stroke:none;font-family:Sans"
             id="text3046">
            <path
               d="m -98.83761,-1.0533709 6.48968,0 0.540807,4.7050186 0.216322,0 c 0.973441,-1.838719 2.145187,-3.19073447 3.515245,-4.05605057 1.370028,-0.86526373 2.74007,-1.29790873 4.11013,-1.29793613 0.75711,2.74e-5 1.370024,0.054108 1.838744,0.162242 0.504732,0.072135 0.955404,0.198323 1.352015,0.3785647 l -1.297935,6.8682455 c -0.504772,-0.1441948 -0.973471,-0.2523561 -1.406098,-0.3244839 -0.432664,-0.072087 -0.937415,-0.108141 -1.514258,-0.1081613 -1.009523,2.03e-5 -2.073109,0.3605579 -3.19076,1.0816134 -1.081627,0.7210945 -1.98297,2.0010024 -2.704033,3.8397276 l 0,15.575234 -7.949859,0 0,-26.8240139"
               style="font-variant:normal;font-weight:bold;font-stretch:normal;fill:#b0bc15;fill-opacity:1;stroke:none;font-family:Source Sans Pro;-inkscape-font-specification:Source Sans Pro Bold"
               id="path3884"
               inkscape:connector-curvature="0" />
          </g>
          <g
             id="text3068"
             style="font-size:51.03498077px;font-style:normal;font-weight:normal;text-align:start;line-height:125%;letter-spacing:0px;word-spacing:0px;text-anchor:start;fill:#b0bc15;fill-opacity:1;stroke:none;font-family:Sans">
            <path
               sodipodi:nodetypes="ccccccccccscccccsscccsc"
               inkscape:connector-curvature="0"
               id="path3077"
               style="font-variant:normal;font-weight:bold;font-stretch:normal;fill:#b0bc15;fill-opacity:1;stroke:none;font-family:Source Sans Pro;-inkscape-font-specification:Source Sans Pro Bold"
               d="m -74.616957,5.7470159 -3.470378,0 1.24007,-6.33083274 3.476748,-0.0770073 0.02944,-6.19780016 6.226268,0 0,6.14394867 6.073162,0 0,6.46169153 -6.073162,0 0,10.1559611 c -1.2e-5,1.428987 0.289186,2.466697 0.867594,3.113133 0.612407,0.612426 1.411954,0.918635 2.398644,0.91863 0.408265,5e-6 0.816544,-0.05103 1.22484,-0.153105 0.442286,-0.102064 0.833554,-0.221146 1.173804,-0.357245 l 1.173805,5.460743 c -0.680484,0.20414 -1.480032,0.40828 -2.398644,0.61242 -0.918645,0.204139 -1.990379,0.306209 -3.215204,0.30621 -1.565084,-1e-6 -2.909004,-0.238164 -4.031763,-0.71449 -1.088755,-0.476326 -1.990372,-1.13978 -2.704854,-1.990364 -0.680472,-0.85058 -1.190822,-1.871279 -1.53105,-3.062099 -0.306214,-1.224833 -0.459319,-2.568753 -0.459315,-4.031764 l 0,-10.2580301" />
          </g>
          <g
             style="font-size:52.78723145px;font-style:normal;font-weight:normal;text-align:start;line-height:125%;letter-spacing:0px;word-spacing:0px;text-anchor:start;fill:#b0bc15;fill-opacity:1;stroke:none;font-family:Sans"
             id="text3072">
            <path
               d="m -58.618982,12.079082 c -10e-7,-2.1818566 0.369509,-4.1173861 1.108532,-5.8065947 0.739018,-1.7243623 1.724378,-3.1672118 2.956085,-4.328553 1.266887,-1.16129472 2.727332,-2.04108103 4.38134,-2.63936159 1.653988,-0.63342031 3.37837,-0.95014331 5.173149,-0.95017011 1.618791,2.68e-5 3.079237,0.2815584 4.38134,0.84459565 1.302064,0.52789776 2.392999,1.24932253 3.272809,2.16427645 l -3.536745,4.8036381 c -1.23172,-1.0205331 -2.445825,-1.5308092 -3.642319,-1.5308297 -1.900354,2.05e-5 -3.395991,0.6686581 -4.486914,2.0059148 -1.090947,1.3372937 -1.636415,3.1496535 -1.636405,5.4370841 -10e-6,2.287458 0.545458,4.099818 1.636405,5.437085 1.126115,1.337283 2.533773,2.005921 4.222978,2.005915 0.950154,6e-6 1.812344,-0.193547 2.586574,-0.58066 0.774194,-0.387099 1.478023,-0.826992 2.11149,-1.31968 l 3.114446,4.909212 c -1.266916,1.126129 -2.674574,1.953128 -4.222978,2.481 -1.548443,0.527872 -3.04408,0.791808 -4.486915,0.791809 -1.82997,-1e-6 -3.536756,-0.299128 -5.120361,-0.897383 -1.548434,-0.633446 -2.903305,-1.530828 -4.064617,-2.692149 -1.161324,-1.161315 -2.076301,-2.586569 -2.744936,-4.275766 -0.668641,-1.724374 -1.002959,-3.6775 -1.002958,-5.859383"
               style="font-variant:normal;font-weight:bold;font-stretch:normal;fill:#b0bc15;fill-opacity:1;stroke:none;font-family:Source Sans Pro;-inkscape-font-specification:Source Sans Pro Bold"
               id="path3887"
               inkscape:connector-curvature="0" />
          </g>
        </g>
        <g
           style="font-size:32.01377869px;font-style:normal;font-weight:normal;text-align:start;line-height:125%;letter-spacing:-2.12693381px;word-spacing:0px;text-anchor:start;fill:#d1d59f;fill-opacity:1;stroke:none;enable-background:new;font-family:Sans"
           id="text3893"
           transform="matrix(3.6634147,0,0,3.6634147,418.74602,166.78666)">
          <path
             style="font-variant:normal;font-weight:bold;font-stretch:normal;fill:#d1d59f;fill-opacity:1;stroke:none;font-family:Source Sans Pro;-inkscape-font-specification:Source Sans Pro Bold"
             d="m -52.247686,11.203377 -4.728032,1.467931 0,13.365722 4.706025,0 0,-14.848047"
             id="path3898"
             inkscape:connector-curvature="0"
             sodipodi:nodetypes="ccccc" />
          <path
             d="m -50.391044,17.782627 c -10e-7,-1.323227 0.213424,-2.497064 0.640275,-3.521516 0.426848,-1.045771 0.992425,-1.920813 1.696731,-2.62513 0.725641,-0.704288 1.557998,-1.23785 2.497074,-1.600689 0.939064,-0.3841488 1.910148,-0.5762313 2.913254,-0.5762476 1.003089,1.63e-5 1.963501,0.1920988 2.88124,0.5762476 0.939058,0.362839 1.760745,0.896401 2.465061,1.600689 0.725631,0.704317 1.301878,1.579359 1.728744,2.62513 0.426834,1.024452 0.640259,2.198289 0.640276,3.521516 -1.7e-5,1.323243 -0.213442,2.507751 -0.640276,3.553529 -0.426866,1.024445 -1.003113,1.888816 -1.728744,2.593116 -0.704316,0.704305 -1.526003,1.248538 -2.465061,1.632703 -0.917739,0.362823 -1.878151,0.544234 -2.88124,0.544234 -1.003106,0 -1.97419,-0.181411 -2.913254,-0.544234 -0.939076,-0.384165 -1.771433,-0.928398 -2.497074,-1.632703 -0.704306,-0.7043 -1.269883,-1.568671 -1.696731,-2.593116 -0.426851,-1.045778 -0.640276,-2.230286 -0.640275,-3.553529 m 4.83408,0 c -6e-6,1.38727 0.234762,2.486409 0.704303,3.297419 0.490871,0.81102 1.227187,1.216527 2.208951,1.216524 0.960404,3e-6 1.686049,-0.405504 2.176937,-1.216524 0.490866,-0.81101 0.736305,-1.910149 0.736317,-3.297419 -1.2e-5,-1.387255 -0.245451,-2.486393 -0.736317,-3.297419 -0.490888,-0.811004 -1.216533,-1.216511 -2.176937,-1.216524 -0.981764,1.3e-5 -1.71808,0.40552 -2.208951,1.216524 -0.469541,0.811026 -0.704309,1.910164 -0.704303,3.297419"
             style="font-variant:normal;font-weight:bold;font-stretch:normal;fill:#d1d59f;fill-opacity:1;stroke:none;font-family:Source Sans Pro;-inkscape-font-specification:Source Sans Pro Bold"
             id="path3900"
             inkscape:connector-curvature="0" />
          <path
             sodipodi:nodetypes="ccccc"
             inkscape:connector-curvature="0"
             id="path3954"
             d="m -56.975718,10.700518 4.728032,-1.4679318 0,-3.0124818 -4.706025,0 0,4.4948076"
             style="font-variant:normal;font-weight:bold;font-stretch:normal;fill:#d1d59f;fill-opacity:1;stroke:none;font-family:Source Sans Pro;-inkscape-font-specification:Source Sans Pro Bold" />
        </g>
      </g>
      <g
         style="font-size:44.23454285px;font-style:normal;font-weight:normal;text-align:start;line-height:125%;letter-spacing:0px;word-spacing:0px;text-anchor:start;fill:#e3e2db;fill-opacity:1;stroke:none;font-family:Sans"
         id="text9066">
        <path
           d="m 323.7762,230.27192 c -1.82837,0 -3.50928,-0.35388 -5.04274,-1.06163 -1.50398,-0.70775 -2.80153,-1.7104 -3.89264,-3.00795 -1.09112,-1.32703 -1.94632,-2.91947 -2.5656,-4.77733 -0.5898,-1.88733 -0.88469,-3.99584 -0.88469,-6.32554 0,-2.32967 0.29489,-4.40869 0.88469,-6.23707 0.61928,-1.85783 1.47448,-3.42078 2.5656,-4.68886 1.09111,-1.29752 2.38866,-2.28543 3.89264,-2.96372 1.53346,-0.67823 3.21437,-1.01736 5.04274,-1.01739 1.82834,3e-5 3.49451,0.35391 4.9985,1.06163 1.53345,0.67829 2.84574,1.66619 3.93688,2.96371 1.12058,1.26808 1.97578,2.83104 2.5656,4.68886 0.61926,1.82838 0.9289,3.89266 0.92893,6.19284 -3e-5,2.3297 -0.30967,4.43821 -0.92893,6.32554 -0.58982,1.85786 -1.44502,3.4503 -2.5656,4.77733 -1.09114,1.29755 -2.40343,2.3002 -3.93688,3.00795 -1.50399,0.70775 -3.17016,1.06163 -4.9985,1.06163 m 0,-3.22912 c 1.29753,0 2.46237,-0.28015 3.49453,-0.84046 1.06161,-0.5603 1.96104,-1.35652 2.69831,-2.38866 0.76671,-1.06163 1.3565,-2.31494 1.76938,-3.75994 0.41283,-1.47447 0.61926,-3.1259 0.61928,-4.95427 -2e-5,-1.79885 -0.20645,-3.42079 -0.61928,-4.8658 -0.41288,-1.44497 -1.00267,-2.66879 -1.76938,-3.67147 -0.73727,-1.00262 -1.6367,-1.76935 -2.69831,-2.30019 -1.03216,-0.56028 -2.197,-0.84043 -3.49453,-0.84046 -1.29756,3e-5 -2.47715,0.28018 -3.53876,0.84046 -1.03215,0.53084 -1.93159,1.29757 -2.69831,2.30019 -0.73725,1.00268 -1.3123,2.2265 -1.72515,3.67147 -0.41286,1.44501 -0.61929,3.06695 -0.61928,4.8658 -1e-5,1.82837 0.20642,3.4798 0.61928,4.95427 0.41285,1.445 0.9879,2.69831 1.72515,3.75994 0.76672,1.03214 1.66616,1.82836 2.69831,2.38866 1.06161,0.56031 2.2412,0.84046 3.53876,0.84046"
           style="font-variant:normal;font-stretch:normal;fill:#e3e2db;font-family:Source Sans Pro;-inkscape-font-specification:Source Sans Pro"
           id="path3976" />
        <path
           d="m 345.7193,231.55472 0,7.25447 -3.62724,0 0,-30.56607 3.00795,0 0.30965,2.47713 0.1327,0 c 0.97315,-0.82569 2.03478,-1.53344 3.18489,-2.12326 1.17957,-0.58977 2.40339,-0.88467 3.67146,-0.88469 1.386,2e-5 2.60982,0.26543 3.67147,0.79622 1.06161,0.50135 1.9463,1.23859 2.65407,2.21173 0.70773,0.94369 1.23855,2.09379 1.59245,3.4503 0.38334,1.32705 0.57502,2.83102 0.57505,4.51192 -3e-5,1.82837 -0.25069,3.46505 -0.75199,4.91003 -0.50135,1.41551 -1.17961,2.62459 -2.03479,3.62724 -0.85522,1.00265 -1.84312,1.76938 -2.96372,2.30019 -1.12062,0.50133 -2.30021,0.75199 -3.53876,0.75199 -1.00266,0 -2.00531,-0.22117 -3.00795,-0.66352 -0.97317,-0.44234 -1.96107,-1.04688 -2.96371,-1.81362 l 0.0885,3.75994 m 0,-6.59095 c 0.97315,0.82572 1.91682,1.41551 2.83101,1.76939 0.91417,0.32438 1.72513,0.48658 2.4329,0.48658 0.88468,0 1.69564,-0.19169 2.4329,-0.57505 0.76671,-0.41286 1.41549,-0.97316 1.94632,-1.68092 0.56028,-0.73723 0.98788,-1.63667 1.2828,-2.6983 0.32437,-1.06162 0.48656,-2.25596 0.48658,-3.583 -2e-5,-1.17958 -0.10323,-2.25595 -0.30964,-3.22912 -0.20645,-0.97315 -0.54558,-1.79886 -1.0174,-2.47714 -0.44236,-0.70773 -1.03215,-1.25329 -1.76938,-1.63668 -0.70777,-0.38334 -1.56297,-0.57503 -2.5656,-0.57504 -0.91419,1e-5 -1.84312,0.25068 -2.78678,0.75198 -0.91419,0.50135 -1.90209,1.22384 -2.96371,2.1675 l 0,11.2798"
           style="font-variant:normal;font-stretch:normal;fill:#e3e2db;font-family:Source Sans Pro;-inkscape-font-specification:Source Sans Pro"
           id="path3978" />
        <path
           d="m 365.03597,219.03634 c 0,-1.76936 0.26541,-3.34706 0.79622,-4.73309 0.5603,-1.41549 1.2828,-2.60982 2.1675,-3.583 0.91417,-0.97314 1.94631,-1.71038 3.09641,-2.21173 1.15009,-0.53079 2.34442,-0.7962 3.583,-0.79622 1.35651,2e-5 2.56559,0.23594 3.62723,0.70775 1.09111,0.47186 1.99054,1.15012 2.69831,2.03479 0.73723,0.88471 1.29753,1.94634 1.68091,3.18489 0.38335,1.23858 0.57503,2.6246 0.57505,4.15805 -2e-5,0.79623 -0.0443,1.45975 -0.1327,1.99055 l -14.50893,0 c 0.14744,2.3297 0.85519,4.1728 2.12326,5.52932 1.29754,1.35653 2.97845,2.03479 5.04274,2.03479 1.03212,0 1.97579,-0.14745 2.83101,-0.44235 0.88467,-0.32438 1.72513,-0.73724 2.52137,-1.23856 l 1.2828,2.38866 c -0.94369,0.5898 -1.99057,1.10587 -3.14066,1.54821 -1.15011,0.44235 -2.4624,0.66352 -3.93687,0.66352 -1.44501,0 -2.80153,-0.25066 -4.06958,-0.75199 -1.23857,-0.53081 -2.32969,-1.26805 -3.27335,-2.21173 -0.91419,-0.97315 -1.63669,-2.15274 -2.1675,-3.53876 -0.53081,-1.38601 -0.79622,-2.9637 -0.79622,-4.7331 m 15.03975,-1.63667 c -2e-5,-2.21172 -0.47186,-3.89263 -1.41551,-5.04274 -0.91419,-1.17957 -2.21174,-1.76936 -3.89264,-1.76938 -0.76674,2e-5 -1.50398,0.16221 -2.21173,0.48658 -0.67827,0.29491 -1.29755,0.73726 -1.85785,1.32703 -0.56031,0.56032 -1.03214,1.26808 -1.4155,2.12326 -0.35388,0.82573 -0.5898,1.78414 -0.70776,2.87525 l 11.50099,0"
           style="font-variant:normal;font-stretch:normal;fill:#e3e2db;font-family:Source Sans Pro;-inkscape-font-specification:Source Sans Pro"
           id="path3980" />
        <path
           d="m 388.5729,208.24312 3.00794,0 0.30965,3.09641 0.1327,0 c 1.03213,-1.03212 2.1085,-1.88732 3.22912,-2.5656 1.15009,-0.70773 2.47712,-1.06161 3.98111,-1.06163 2.27069,2e-5 3.92211,0.70778 4.95427,2.12326 1.06161,1.41552 1.59242,3.50929 1.59244,6.2813 l 0,13.62424 -3.62723,0 0,-13.13766 c -2e-5,-2.03477 -0.3244,-3.49451 -0.97316,-4.37921 -0.64879,-0.91417 -1.68093,-1.37126 -3.09642,-1.37128 -1.12062,2e-5 -2.10852,0.28018 -2.96371,0.84046 -0.85521,0.56032 -1.82837,1.38603 -2.91948,2.47714 l 0,15.57055 -3.62723,0 0,-21.49798"
           style="font-variant:normal;font-stretch:normal;fill:#e3e2db;font-family:Source Sans Pro;-inkscape-font-specification:Source Sans Pro"
           id="path3982" />
        <path
           d="m 413.20601,223.41556 c 1.03213,1.09113 2.24121,1.97582 3.62723,2.65408 1.4155,0.64877 2.87523,0.97316 4.37922,0.97316 1.91682,0 3.40604,-0.4276 4.46769,-1.2828 1.06161,-0.88469 1.59242,-2.03479 1.59244,-3.4503 -2e-5,-0.73723 -0.13272,-1.35652 -0.39811,-1.85785 -0.23593,-0.5308 -0.57507,-0.97315 -1.01739,-1.32704 -0.41288,-0.38335 -0.9142,-0.72248 -1.50398,-1.01739 -0.58981,-0.29489 -1.22383,-0.60453 -1.90208,-0.92893 l -4.15805,-1.81361 c -0.67827,-0.29488 -1.37128,-0.64876 -2.07902,-1.06163 -0.70776,-0.41284 -1.34179,-0.91417 -1.90209,-1.50398 -0.56031,-0.58977 -1.0174,-1.28278 -1.37127,-2.07902 -0.35388,-0.82569 -0.53082,-1.76936 -0.53081,-2.83101 -10e-6,-1.0911 0.22116,-2.10849 0.66351,-3.05218 0.47183,-0.94365 1.10586,-1.75461 1.90209,-2.4329 0.8257,-0.70773 1.78412,-1.25329 2.87524,-1.63668 1.1206,-0.38334 2.34442,-0.57502 3.67147,-0.57505 1.73988,3e-5 3.34707,0.33916 4.82157,1.01739 1.47446,0.64881 2.72777,1.50401 3.75993,2.56561 l -1.99055,2.38866 c -0.88471,-0.85517 -1.87262,-1.51869 -2.96372,-1.99055 -1.06164,-0.5013 -2.27072,-0.75196 -3.62723,-0.75199 -1.62194,3e-5 -2.93423,0.38339 -3.93687,1.1501 -0.97317,0.73727 -1.45975,1.7694 -1.45974,3.09642 -1e-5,0.70777 0.13269,1.31231 0.39811,1.81361 0.29489,0.47186 0.67825,0.89946 1.1501,1.28281 0.47182,0.35389 0.98789,0.67828 1.5482,0.97316 0.5603,0.26542 1.13535,0.51608 1.72515,0.75198 l 4.11381,1.76938 c 0.8257,0.3539 1.60718,0.76675 2.34444,1.23857 0.73722,0.44236 1.37125,0.97317 1.90208,1.59244 0.53079,0.58981 0.94365,1.29756 1.23857,2.12326 0.32436,0.79623 0.48656,1.72516 0.48658,2.78678 -2e-5,1.1501 -0.23594,2.22648 -0.70776,3.22912 -0.44236,1.00265 -1.09113,1.88734 -1.94632,2.65407 -0.85521,0.73725 -1.88735,1.32704 -3.09641,1.76939 -1.2091,0.41285 -2.58036,0.61928 -4.11382,0.61928 -2.03479,0 -3.92213,-0.38337 -5.66202,-1.1501 -1.73989,-0.76673 -3.24387,-1.81361 -4.51192,-3.14065 l 2.21173,-2.56561"
           style="font-variant:normal;font-stretch:normal;fill:#e3e2db;font-family:Source Sans Pro;-inkscape-font-specification:Source Sans Pro"
           id="path3984" />
        <path
           d="m 434.75722,219.03634 c -1e-5,-1.79885 0.2654,-3.3913 0.79622,-4.77733 0.5603,-1.41548 1.29754,-2.60982 2.21173,-3.58299 0.91417,-0.97314 1.96105,-1.71039 3.14065,-2.21173 1.20907,-0.5013 2.47712,-0.75197 3.80417,-0.75199 1.32702,2e-5 2.58033,0.25069 3.75993,0.75199 1.20907,0.50134 2.27069,1.23859 3.18489,2.21173 0.91416,0.97317 1.63666,2.16751 2.16749,3.58299 0.56029,1.38603 0.84044,2.97848 0.84046,4.77733 -2e-5,1.7694 -0.28017,3.36184 -0.84046,4.77734 -0.53083,1.38602 -1.25333,2.5656 -2.16749,3.53876 -0.9142,0.94367 -1.97582,1.66617 -3.18489,2.16749 -1.1796,0.50133 -2.43291,0.75199 -3.75993,0.75199 -1.32705,0 -2.5951,-0.25066 -3.80417,-0.75199 -1.1796,-0.50132 -2.22648,-1.22382 -3.14065,-2.16749 -0.91419,-0.97316 -1.65143,-2.15274 -2.21173,-3.53876 -0.53082,-1.4155 -0.79623,-3.00794 -0.79622,-4.77734 m 3.75993,0 c 0,1.23858 0.14745,2.35919 0.44235,3.36183 0.29489,1.00266 0.70774,1.8726 1.23857,2.60984 0.56029,0.70775 1.22381,1.26806 1.99055,1.68091 0.76672,0.38337 1.60718,0.57505 2.52137,0.57505 0.91417,0 1.75462,-0.19168 2.52137,-0.57505 0.76671,-0.41285 1.41549,-0.97316 1.94632,-1.68091 0.56028,-0.73724 0.98788,-1.60718 1.2828,-2.60984 0.29488,-1.00264 0.44233,-2.12325 0.44234,-3.36183 -1e-5,-1.23855 -0.14746,-2.35916 -0.44234,-3.36182 -0.29492,-1.03212 -0.72252,-1.91681 -1.2828,-2.65407 -0.53083,-0.73723 -1.17961,-1.29753 -1.94632,-1.68092 -0.76675,-0.41283 -1.6072,-0.61926 -2.52137,-0.61928 -0.91419,2e-5 -1.75465,0.20645 -2.52137,0.61928 -0.76674,0.38339 -1.43026,0.94369 -1.99055,1.68092 -0.53083,0.73726 -0.94368,1.62195 -1.23857,2.65407 -0.2949,1.00266 -0.44235,2.12327 -0.44235,3.36182"
           style="font-variant:normal;font-stretch:normal;fill:#e3e2db;font-family:Source Sans Pro;-inkscape-font-specification:Source Sans Pro"
           id="path3986" />
        <path
           d="m 460.05799,208.24312 3.67147,0 0,13.13766 c -1e-5,2.03479 0.30963,3.50927 0.92893,4.42345 0.64876,0.88469 1.6809,1.32704 3.09641,1.32704 1.1206,0 2.1085,-0.28015 2.96372,-0.84046 0.85518,-0.58979 1.79885,-1.51871 2.83101,-2.78678 l 0,-15.26091 3.62723,0 0,21.49798 -3.00795,0 -0.30964,-3.36182 -0.1327,0 c -1.00267,1.17959 -2.0643,2.12326 -3.18489,2.83101 -1.09113,0.70775 -2.38868,1.06163 -3.89264,1.06163 -2.3002,0 -3.98111,-0.70775 -5.04274,-2.12326 -1.03214,-1.4155 -1.54821,-3.50927 -1.54821,-6.2813 l 0,-13.62424"
           style="font-variant:normal;font-stretch:normal;fill:#e3e2db;font-family:Source Sans Pro;-inkscape-font-specification:Source Sans Pro"
           id="path3988" />
        <path
           d="m 484.472,208.24312 3.00795,0 0.30965,3.89264 0.1327,0 c 0.73723,-1.35651 1.62192,-2.43288 2.65407,-3.22913 1.06162,-0.7962 2.21172,-1.19431 3.4503,-1.19433 0.85518,2e-5 1.62191,0.14747 2.30019,0.44235 l -0.70775,3.18488 c -0.35389,-0.11794 -0.67828,-0.2064 -0.97316,-0.2654 -0.29491,-0.059 -0.66353,-0.0884 -1.10586,-0.0885 -0.9142,2e-5 -1.87261,0.36864 -2.87525,1.10586 -0.97317,0.73726 -1.82837,2.02006 -2.5656,3.84841 l 0,13.80117 -3.62724,0 0,-21.49798"
           style="font-variant:normal;font-stretch:normal;fill:#e3e2db;font-family:Source Sans Pro;-inkscape-font-specification:Source Sans Pro"
           id="path3990" />
        <path
           d="m 497.82599,219.03634 c 0,-1.79885 0.28015,-3.3913 0.84045,-4.77733 0.5603,-1.41548 1.31229,-2.60982 2.25597,-3.58299 0.94366,-0.97314 2.03478,-1.71039 3.27335,-2.21173 1.26805,-0.5013 2.59508,-0.75197 3.98111,-0.75199 1.41549,2e-5 2.62457,0.26543 3.62723,0.79622 1.03213,0.50135 1.91682,1.09114 2.65408,1.76939 l -1.81362,2.34443 c -0.64879,-0.56029 -1.32705,-1.01738 -2.03479,-1.37127 -0.67828,-0.35386 -1.44501,-0.5308 -2.3002,-0.53082 -0.97317,2e-5 -1.8726,0.20645 -2.6983,0.61928 -0.82572,0.38339 -1.53348,0.94369 -2.12326,1.68092 -0.5898,0.73726 -1.06164,1.62195 -1.41551,2.65407 -0.32439,1.00266 -0.48658,2.12327 -0.48658,3.36182 0,1.23858 0.16219,2.35919 0.48658,3.36183 0.32438,1.00266 0.76673,1.8726 1.32704,2.60984 0.58979,0.70775 1.29754,1.26806 2.12326,1.68091 0.8257,0.38337 1.72513,0.57505 2.69831,0.57505 1.03212,0 1.96105,-0.20643 2.78677,-0.61928 0.85519,-0.44235 1.60717,-0.95841 2.25596,-1.54821 l 1.63668,2.38866 c -0.97318,0.85521 -2.06429,1.53347 -3.27335,2.03479 -1.17961,0.50133 -2.41817,0.75199 -3.71571,0.75199 -1.41551,0 -2.74255,-0.25066 -3.98111,-0.75199 -1.23857,-0.50132 -2.31494,-1.22382 -3.22912,-2.16749 -0.88469,-0.97316 -1.59244,-2.15274 -2.12326,-3.53876 -0.50132,-1.4155 -0.75198,-3.00794 -0.75198,-4.77734"
           style="font-variant:normal;font-stretch:normal;fill:#e3e2db;font-family:Source Sans Pro;-inkscape-font-specification:Source Sans Pro"
           id="path3992" />
        <path
           d="m 517.00581,219.03634 c 0,-1.76936 0.26541,-3.34706 0.79622,-4.73309 0.56031,-1.41549 1.2828,-2.60982 2.1675,-3.583 0.91417,-0.97314 1.94631,-1.71038 3.09641,-2.21173 1.15009,-0.53079 2.34443,-0.7962 3.583,-0.79622 1.35652,2e-5 2.56559,0.23594 3.62724,0.70775 1.0911,0.47186 1.99053,1.15012 2.6983,2.03479 0.73723,0.88471 1.29753,1.94634 1.68092,3.18489 0.38334,1.23858 0.57502,2.6246 0.57504,4.15805 -2e-5,0.79623 -0.0443,1.45975 -0.1327,1.99055 l -14.50893,0 c 0.14744,2.3297 0.8552,4.1728 2.12326,5.52932 1.29754,1.35653 2.97845,2.03479 5.04274,2.03479 1.03212,0 1.97579,-0.14745 2.83101,-0.44235 0.88467,-0.32438 1.72513,-0.73724 2.52137,-1.23856 l 1.2828,2.38866 c -0.94369,0.5898 -1.99057,1.10587 -3.14065,1.54821 -1.15012,0.44235 -2.46241,0.66352 -3.93688,0.66352 -1.445,0 -2.80153,-0.25066 -4.06958,-0.75199 -1.23857,-0.53081 -2.32969,-1.26805 -3.27335,-2.21173 -0.91419,-0.97315 -1.63668,-2.15274 -2.1675,-3.53876 -0.53081,-1.38601 -0.79622,-2.9637 -0.79622,-4.7331 m 15.03975,-1.63667 c -2e-5,-2.21172 -0.47185,-3.89263 -1.41551,-5.04274 -0.91419,-1.17957 -2.21174,-1.76936 -3.89264,-1.76938 -0.76674,2e-5 -1.50398,0.16221 -2.21173,0.48658 -0.67827,0.29491 -1.29755,0.73726 -1.85785,1.32703 -0.56031,0.56032 -1.03214,1.26808 -1.4155,2.12326 -0.35388,0.82573 -0.5898,1.78414 -0.70775,2.87525 l 11.50098,0"
           style="font-variant:normal;font-stretch:normal;fill:#e3e2db;font-family:Source Sans Pro;-inkscape-font-specification:Source Sans Pro"
           id="path3994" />
        <path
           d="m 546.83165,200.72324 3.80417,0 3.05218,15.79174 c 0.2654,1.59245 0.54555,3.1554 0.84046,4.68886 0.29489,1.53347 0.57504,3.09642 0.84046,4.68886 l 0.17693,0 c 0.32438,-1.59244 0.66351,-3.15539 1.0174,-4.68886 0.35386,-1.56295 0.693,-3.1259 1.01739,-4.68886 l 4.02535,-15.79174 3.36182,0 4.02535,15.79174 c 0.35385,1.53347 0.70772,3.08168 1.06162,4.64462 0.35386,1.56296 0.70773,3.14066 1.06163,4.7331 l 0.17694,0 c 0.26538,-1.59244 0.53079,-3.15539 0.79622,-4.68886 0.26538,-1.56295 0.54554,-3.1259 0.84046,-4.68886 l 3.05218,-15.79174 3.53877,0 -6.0159,29.01786 -4.42346,0 -4.37922,-17.47264 c -0.26542,-1.12059 -0.51608,-2.21171 -0.75198,-3.27336 -0.20645,-1.09109 -0.42762,-2.19696 -0.66352,-3.31759 l -0.17694,0 c -0.23593,1.12063 -0.4866,2.2265 -0.75199,3.31759 -0.23593,1.06165 -0.47185,2.15277 -0.70775,3.27336 l -4.29075,17.47264 -4.37922,0 -6.1486,-29.01786"
           style="font-variant:normal;font-stretch:normal;fill:#e3e2db;font-family:Source Sans Pro;-inkscape-font-specification:Source Sans Pro"
           id="path3996" />
        <path
           d="m 582.58008,219.03634 c 0,-1.76936 0.2654,-3.34706 0.79622,-4.73309 0.5603,-1.41549 1.2828,-2.60982 2.16749,-3.583 0.91418,-0.97314 1.94631,-1.71038 3.09642,-2.21173 1.15009,-0.53079 2.34442,-0.7962 3.583,-0.79622 1.35651,2e-5 2.56559,0.23594 3.62723,0.70775 1.0911,0.47186 1.99054,1.15012 2.69831,2.03479 0.73722,0.88471 1.29752,1.94634 1.68091,3.18489 0.38335,1.23858 0.57503,2.6246 0.57505,4.15805 -2e-5,0.79623 -0.0443,1.45975 -0.1327,1.99055 l -14.50893,0 c 0.14744,2.3297 0.85519,4.1728 2.12325,5.52932 1.29754,1.35653 2.97845,2.03479 5.04274,2.03479 1.03213,0 1.9758,-0.14745 2.83101,-0.44235 0.88468,-0.32438 1.72513,-0.73724 2.52137,-1.23856 l 1.2828,2.38866 c -0.94369,0.5898 -1.99057,1.10587 -3.14065,1.54821 -1.15011,0.44235 -2.4624,0.66352 -3.93687,0.66352 -1.44501,0 -2.80154,-0.25066 -4.06958,-0.75199 -1.23858,-0.53081 -2.32969,-1.26805 -3.27336,-2.21173 -0.91418,-0.97315 -1.63668,-2.15274 -2.16749,-3.53876 -0.53082,-1.38601 -0.79622,-2.9637 -0.79622,-4.7331 m 15.03974,-1.63667 c -2e-5,-2.21172 -0.47185,-3.89263 -1.4155,-5.04274 -0.9142,-1.17957 -2.21174,-1.76936 -3.89264,-1.76938 -0.76675,2e-5 -1.50399,0.16221 -2.21173,0.48658 -0.67827,0.29491 -1.29756,0.73726 -1.85785,1.32703 -0.56031,0.56032 -1.03215,1.26808 -1.41551,2.12326 -0.35388,0.82573 -0.5898,1.78414 -0.70775,2.87525 l 11.50098,0"
           style="font-variant:normal;font-stretch:normal;fill:#e3e2db;font-family:Source Sans Pro;-inkscape-font-specification:Source Sans Pro"
           id="path3998" />
        <path
           d="m 606.11701,198.24611 3.62723,0 0,8.5815 -0.0885,3.89264 c 0.97315,-0.85518 2.03478,-1.56293 3.18489,-2.12326 1.15009,-0.58977 2.32967,-0.88467 3.53876,-0.88469 1.386,2e-5 2.60982,0.26543 3.67147,0.79622 1.06161,0.50135 1.9463,1.23859 2.65407,2.21173 0.73722,0.94369 1.28278,2.09379 1.63668,3.4503 0.38334,1.32705 0.57503,2.81627 0.57505,4.46768 -2e-5,1.82837 -0.25068,3.46505 -0.75199,4.91004 -0.50134,1.445 -1.17961,2.66882 -2.03479,3.67147 -0.85522,1.00265 -1.84312,1.76938 -2.96371,2.30019 -1.12062,0.50133 -2.30021,0.75199 -3.53876,0.75199 -1.00267,0 -2.04955,-0.22117 -3.14066,-0.66352 -1.06163,-0.47183 -2.06428,-1.13535 -3.00795,-1.99055 l -0.1327,0 -0.30964,2.12325 -2.91948,0 0,-31.49499 m 3.62723,26.71766 c 0.94366,0.82572 1.87259,1.41551 2.78678,1.76939 0.94366,0.32438 1.76937,0.48658 2.47713,0.48658 0.88468,0 1.69565,-0.19169 2.4329,-0.57505 0.76672,-0.41286 1.41549,-0.97316 1.94632,-1.68092 0.56029,-0.73723 0.98789,-1.63667 1.2828,-2.6983 0.32437,-1.06162 0.48657,-2.25596 0.48658,-3.583 -10e-6,-1.17958 -0.10323,-2.25595 -0.30964,-3.22912 -0.20644,-0.97315 -0.54558,-1.79886 -1.01739,-2.47714 -0.44236,-0.70773 -1.03216,-1.25329 -1.76938,-1.63668 -0.70777,-0.38334 -1.56297,-0.57503 -2.56561,-0.57504 -1.7399,1e-5 -3.65673,0.97317 -5.75049,2.91948 l 0,11.2798"
           style="font-variant:normal;font-stretch:normal;fill:#e3e2db;font-family:Source Sans Pro;-inkscape-font-specification:Source Sans Pro"
           id="path4000" />
        <path
           d="m 634.6787,214.48019 4.8658,0 c 2.27069,1e-5 4.01058,-0.45708 5.21967,-1.37127 1.20906,-0.94366 1.8136,-2.35916 1.81362,-4.24652 -2e-5,-1.91681 -0.60456,-3.25859 -1.81362,-4.02534 -1.20909,-0.76671 -2.94898,-1.15008 -5.21967,-1.1501 l -4.8658,0 0,10.79323 m 12.25297,15.26091 -6.98906,-12.25296 -5.26391,0 0,12.25296 -3.67147,0 0,-29.01786 9.06808,0 c 1.47447,3e-5 2.831,0.14748 4.06958,0.44235 1.26804,0.26544 2.34441,0.72252 3.22912,1.37127 0.91416,0.6488 1.62191,1.48926 2.12326,2.52137 0.5013,1.03216 0.75196,2.30022 0.75199,3.80417 -3e-5,2.27073 -0.58982,4.08434 -1.76938,5.44085 -1.17961,1.35654 -2.75731,2.28546 -4.7331,2.78677 l 7.34293,12.65108 -4.15804,0"
           style="font-variant:normal;font-stretch:normal;fill:#e3e2db;font-family:Source Sans Pro;-inkscape-font-specification:Source Sans Pro"
           id="path4002" />
        <path
           d="m 661.81866,203.81966 -8.75844,0 0,-3.09642 21.23258,0 0,3.09642 -8.75844,0 0,25.92144 -3.7157,0 0,-25.92144"
           style="font-variant:normal;font-stretch:normal;fill:#e3e2db;font-family:Source Sans Pro;-inkscape-font-specification:Source Sans Pro"
           id="path4004" />
        <path
           d="m 676.75747,215.23217 c 0,-2.32967 0.32439,-4.42343 0.97316,-6.2813 0.64877,-1.85783 1.54821,-3.43553 2.69831,-4.7331 1.15009,-1.29752 2.50661,-2.28542 4.06958,-2.96371 1.59243,-0.70772 3.31757,-1.0616 5.17544,-1.06163 1.76936,3e-5 3.31757,0.36865 4.64463,1.10586 1.32701,0.70778 2.41813,1.53349 3.27335,2.47714 l -2.07902,2.34443 c -0.76675,-0.82569 -1.62195,-1.47446 -2.56561,-1.94632 -0.91419,-0.5013 -1.99057,-0.75196 -3.22912,-0.75199 -1.38603,3e-5 -2.63934,0.28018 -3.75993,0.84046 -1.12062,0.53084 -2.07904,1.31231 -2.87525,2.34443 -0.79623,1.00267 -1.41551,2.22649 -1.85785,3.67147 -0.44235,1.44501 -0.66352,3.06694 -0.66352,4.86579 0,1.82838 0.20642,3.4798 0.61929,4.95427 0.44233,1.44501 1.04687,2.68357 1.81361,3.71571 0.76672,1.03214 1.69565,1.82836 2.78678,2.38866 1.12059,0.56031 2.37391,0.84046 3.75993,0.84046 1.41549,0 2.63931,-0.28015 3.67147,-0.84046 1.06161,-0.5603 2.06426,-1.35652 3.00795,-2.38866 l 2.07902,2.25596 c -1.15012,1.32704 -2.44766,2.35917 -3.89264,3.09642 -1.44501,0.73724 -3.09643,1.10586 -4.95426,1.10586 -1.82838,0 -3.52403,-0.33913 -5.08698,-1.0174 -1.53347,-0.67826 -2.87525,-1.65142 -4.02534,-2.91948 -1.12061,-1.29754 -2.0053,-2.87523 -2.65407,-4.73309 -0.61929,-1.88733 -0.92893,-4.01059 -0.92893,-6.36978"
           style="font-variant:normal;font-stretch:normal;fill:#e3e2db;font-family:Source Sans Pro;-inkscape-font-specification:Source Sans Pro"
           id="path4006" />
      </g>
    </g>
  </g>
</svg>
